<?xml version="1.0" encoding="utf-8"?>
<!-- Generator: Adobe Illustrator 22.1.0, SVG Export Plug-In . SVG Version: 6.00 Build 0)  -->
<svg version="1.1" id="Layer_1" xmlns="http://www.w3.org/2000/svg" xmlns:xlink="http://www.w3.org/1999/xlink" x="0px" y="0px"
	 viewBox="0 0 94 96.6" style="enable-background:new 0 0 94 96.6;" xml:space="preserve">
<style type="text/css">
	.st0{fill:#E8E8E8;}
</style>
<circle class="st0" cx="46.4" cy="47.9" r="38.7"/>
<g>
	<path d="M73.1,35.5c-1.6-2-5.1-3.1-11.4-4.1c-6-1-12.6-1.1-14.8-1.2v-2.4c0.6-0.3,1.1-1,1.1-1.7c0-1-0.8-1.9-1.9-1.9
		c-1,0-1.9,0.8-1.9,1.9c0,0.7,0.4,1.4,1.1,1.7v2.4c-1.7,0-8.8,0.1-15.2,1.2c-6.3,1-9.8,2.1-11.4,4.1c-1.6,2-0.4,6.3,1.2,13.7
		c2.1,9.6,2.6,10.9,3.5,12.7c1.2,2.2,3.8,2,10.5,2c0.1,0,3.6,0,6.7,0v22.2c1.9,0.3,3.8,0.4,5.8,0.4c1.7,0,3.4-0.1,5.1-0.3V64
		c3.1,0,6.2,0,6.3,0c6.6,0,9.3,0.2,10.5-2c0.9-1.7,1.4-3.1,3.5-12.7C73.5,41.8,74.7,37.6,73.1,35.5z M70,39.3
		c-0.2,2-1.7,8.7-1.8,9.1c-0.2,0.8-1.5,6.3-2.4,9.3c-0.3,0.9-0.7,2-2.1,2.2c-1.3,0.2-3.5,0.1-6.5,0.1H45.6h-0.2h-0.2H34.4
		c-3.1,0-5.2,0-6.5-0.1c-1.4-0.2-1.8-1.3-2.1-2.2c-0.9-3-2.2-8.5-2.4-9.3c-0.1-0.4-1.5-7.1-1.8-9.1c-0.1-0.8,0.1-1.4,0.3-1.6
		c0.7-0.8,2.4-1.3,8.7-2.3c6.5-1.1,14-1.1,14.8-1.1h0.7c0.9,0,8.4,0.1,14.8,1.1c6.3,1,8,1.6,8.7,2.3C70,37.9,70.1,38.5,70,39.3z"/>
	<g>
		<path d="M37.1,43.3c-3.5,0-6.3,2.8-6.3,6.3c0,0.8,0.6,1.4,1.4,1.4c0.8,0,1.4-0.6,1.4-1.4c0-2,1.6-3.6,3.6-3.6c2,0,3.6,1.6,3.6,3.6
			c0,0.8,0.6,1.4,1.4,1.4c0.8,0,1.4-0.6,1.4-1.4C43.4,46.1,40.6,43.3,37.1,43.3z"/>
		<path d="M55.3,43.3c-3.5,0-6.3,2.8-6.3,6.3c0,0.8,0.6,1.4,1.4,1.4s1.4-0.6,1.4-1.4c0-2,1.6-3.6,3.6-3.6c2,0,3.6,1.6,3.6,3.6
			c0,0.8,0.6,1.4,1.4,1.4s1.4-0.6,1.4-1.4C61.7,46.1,58.8,43.3,55.3,43.3z"/>
	</g>
</g>
</svg>
